# xmcd
#
# Track frame offsets:
#	150
#	15601
#	27677
#	38862
#	54763
#	72539
#
# Disc length: 1063 seconds
#
# Revision: 1
# Processed by: cddbd v1.5.2PL0 Copyright (c) Steve Scherf et al.
# Submitted via: audiograbber 1.83.01
#
DISCID=4c042506
DTITLE=Megan Puls - Proud To Be Australian
DYEAR=2006
DGENRE=Country
TTITLE0=Cowboys
TTITLE1=Roadtrain
TTITLE2=Proud To Be Australian
TTITLE3=Don't Forget
TTITLE4=Only Lady
TTITLE5=Radio Interview
EXTD=Megan comes from Milawa in N-E Victoria
EXTT0=
EXTT1=
EXTT2=
EXTT3=
EXTT4=
EXTT5=
PLAYORDER=
